<?xml version="1.0" encoding="UTF-8" standalone="no"?>
<svg
   xmlns:dc="http://purl.org/dc/elements/1.1/"
   xmlns:cc="http://creativecommons.org/ns#"
   xmlns:rdf="http://www.w3.org/1999/02/22-rdf-syntax-ns#"
   xmlns:svg="http://www.w3.org/2000/svg"
   xmlns="http://www.w3.org/2000/svg"
   width="380"
   height="300"
   viewBox="0 0 100.54167 79.375012"
   version="1.1"
   id="svg8">
  <defs
     id="defs2">
    <rect
       x="10.583333"
       y="31.75"
       width="116.41667"
       height="74.083336"
       id="rect1259" />
    <rect
       x="19.765865"
       y="65.609734"
       width="204.62271"
       height="197.29781"
       id="rect70" />
    <rect
       x="33.834221"
       y="93.549751"
       width="143.92357"
       height="117.82402"
       id="rect64" />
    <rect
       x="134.56367"
       y="198.94859"
       width="123.65289"
       height="133.98758"
       id="rect58" />
    <rect
       x="81.606819"
       y="172.14313"
       width="123.17387"
       height="123.51699"
       id="rect52" />
    <rect
       x="3.8558462"
       y="117.28365"
       width="160.79297"
       height="121.9756"
       id="rect46" />
  </defs>
  <metadata
     id="metadata5">
    <rdf:RDF>
      <cc:Work
         rdf:about="">
        <dc:format>image/svg+xml</dc:format>
        <dc:type
           rdf:resource="http://purl.org/dc/dcmitype/StillImage" />
        <dc:title></dc:title>
      </cc:Work>
    </rdf:RDF>
  </metadata>
  <g
     id="layer1">
    <text
       xml:space="preserve"
       id="text44"
       style="font-style:normal;font-weight:normal;font-size:10.5833px;line-height:1.25;font-family:sans-serif;white-space:pre;shape-inside:url(#rect46);fill:#000000;fill-opacity:1;stroke:none;" />
    <text
       xml:space="preserve"
       id="text50"
       style="font-style:normal;font-weight:normal;font-size:10.5833px;line-height:1.25;font-family:sans-serif;white-space:pre;shape-inside:url(#rect52);fill:#000000;fill-opacity:1;stroke:none;" />
    <text
       xml:space="preserve"
       id="text56"
       style="font-style:normal;font-weight:normal;font-size:10.5833px;line-height:1.25;font-family:sans-serif;white-space:pre;shape-inside:url(#rect58);fill:#000000;fill-opacity:1;stroke:none;" />
    <text
       xml:space="preserve"
       id="text68"
       style="font-style:normal;font-weight:normal;font-size:10.5833px;line-height:1.25;font-family:sans-serif;white-space:pre;shape-inside:url(#rect70);fill:#000000;fill-opacity:1;stroke:none;" />
    <circle
       id="path112"
       style="fill:#000000;stroke:#000000;stroke-width:0.264583"
       cx="49.922337"
       cy="197.59239"
       r="0.1483833" />
    <circle
       id="path140"
       style="fill:#000000;stroke:#000000;stroke-width:0.264583"
       cx="160.71164"
       cy="53.591969"
       r="0.057565987" />
    <path
       style="fill:#000000;fill-opacity:1;stroke:none;stroke-width:3.28599;stroke-miterlimit:4;stroke-dasharray:none;stroke-opacity:1"
       id="path1325"
       d="m 18.959243,30.065827 c -1.024756,-1.361493 -1.691562,-2.870375 -2.092753,-4.517213 -0.333642,-1.759169 -0.147629,-3.533711 0.236769,-5.265055 0.257131,-1.091943 0.638942,-2.142564 1.133407,-3.147927 0.476471,-1.073254 1.464331,-1.686717 2.400929,-2.322852 1.930224,-1.100904 5.353484,-3.275618 -3.288289,1.922235 -0.256129,0.154057 0.534335,-0.268038 0.802996,-0.399023 0.699209,-0.340895 0.918387,-0.4381 1.612452,-0.759058 1.159051,-0.558813 2.358412,-1.019921 3.592221,-1.382091 1.105278,-0.404137 2.173621,-0.06482 3.249739,0.268391 1.6304,0.578824 3.225742,1.253673 4.754885,2.062962 1.414513,0.752885 2.581117,1.833364 3.702535,2.958102 1.079748,1.134491 2.010288,2.398247 2.93049,3.662257 0.577477,0.781722 1.125993,1.579903 1.556369,2.452068 0,0 5.614265,-3.188359 5.614265,-3.188359 v 0 c -0.439295,-0.916072 -1.032428,-1.734415 -1.63295,-2.552181 -0.980852,-1.25535 -1.945682,-2.52558 -3.012993,-3.709869 -1.14436,-1.183031 -2.359033,-2.317609 -3.814945,-3.111129 -1.537866,-0.85793 -3.169975,-1.521153 -4.810791,-2.156195 -1.073277,-0.398111 -2.228832,-0.9415807 -3.390469,-0.65205 -1.280022,0.368541 -2.542977,0.795438 -3.743542,1.379109 -3.49389,1.600567 -6.871669,3.449886 -10.087356,5.558522 -0.979416,0.722532 -1.889005,1.474984 -2.318909,2.654409 -0.451949,1.054965 -0.848641,2.138899 -1.034869,3.276253 -0.27933,1.812489 -0.399869,3.645379 -0.01483,5.456288 0.419008,1.703173 1.091489,3.259923 1.98749,4.76759 0,0 5.668145,-3.255184 5.668145,-3.255184 z" />
    <path
       style="fill:#000000;fill-opacity:1;stroke:none;stroke-width:3.28599;stroke-miterlimit:4;stroke-dasharray:none;stroke-opacity:1"
       id="path1327"
       d="m 10.270245,36.297846 c -0.9115754,1.47804 -1.8955178,2.909382 -2.7714015,4.409165 -1.0828904,1.897682 -1.9882011,3.886909 -2.9776721,5.833025 -0.2810812,0.642279 -0.7022651,1.227217 -0.8498052,1.919222 0,0 5.9104891,-2.8257 5.9104891,-2.8257 v 0 c 0.195476,-0.594516 0.4833067,-1.152573 0.7399827,-1.72185 0.928549,-1.945219 1.831274,-3.908629 2.943393,-5.758273 0.953926,-1.526717 1.951071,-3.026232 3.008589,-4.48352 0,0 -6.003575,2.627931 -6.003575,2.627931 z" />
    <path
       style="fill:#000000;fill-opacity:1;stroke:none;stroke-width:3.28599;stroke-miterlimit:4;stroke-dasharray:none;stroke-opacity:1"
       id="path1329"
       d="m 10.540858,45.364641 c 1.512659,-1.411462 2.899273,-2.946622 4.273442,-4.490945 1.188237,-1.280604 2.266248,-2.691776 3.594897,-3.837175 0.617685,-0.532493 1.090945,-0.814086 1.76193,-1.254617 3.636835,-1.907503 -6.715122,3.023049 -3.781467,2.366012 0,0 5.284738,-3.761181 5.284738,-3.761181 v 0 c -0.200151,-0.05698 -0.413433,-0.26221 -0.600455,-0.17094 -3.051069,1.488977 -4.519772,2.438442 -6.803225,3.887899 -1.993164,1.466273 -3.596224,3.326886 -5.2121374,5.189074 -1.4494551,1.587206 -2.9278311,3.149068 -4.5576911,4.554741 0,0 6.0399685,-2.482868 6.0399685,-2.482868 z" />
    <path
       style="fill:#000000;fill-opacity:1;stroke:none;stroke-width:3.28599;stroke-miterlimit:4;stroke-dasharray:none;stroke-opacity:1"
       id="path1331"
       d="m 17.238282,40.236204 c 0.19532,1.470429 0.502918,2.919071 0.863686,4.356597 0.388782,1.591207 0.943942,3.133198 1.532247,4.659548 0.564598,1.55861 1.260256,3.050172 2.131002,4.459787 1.329199,1.8532 2.828338,3.576609 4.2437,5.363655 1.477632,1.863352 3.050217,3.632607 4.80273,5.240192 1.986714,1.820209 4.35166,3.128637 6.765616,4.285967 3.375223,1.661091 6.835012,2.520188 10.53072,3.100641 4.848231,0.582972 9.750692,0.572894 14.599518,-0.0075 1.103037,-0.132035 2.197661,-0.326792 3.296491,-0.490188 4.49344,-0.723858 8.782582,-2.172311 12.99713,-3.835657 0,0 4.961001,-3.913164 4.961001,-3.913164 v 0 c -1.563616,0.684202 -3.107084,1.401078 -4.716391,1.977023 -2.824208,1.010734 -5.730436,1.770996 -8.673179,2.346846 -1.084054,0.165997 -2.163922,0.362098 -3.252158,0.497985 -4.747144,0.59277 -9.557893,0.588029 -14.302118,-0.02445 C 49.470656,67.66778 46.00512,66.79247 42.770586,65.17285 40.413307,64.040719 38.104572,62.780244 36.152571,61.013523 34.43424,59.418218 32.865279,57.687022 31.417133,55.841755 29.996765,54.100214 28.5413,52.375808 27.279333,50.51465 26.460675,49.121547 25.776346,47.663526 25.222208,46.144146 24.655833,44.637725 24.104595,43.123044 23.717726,41.55843 c -0.344072,-1.423614 -0.647763,-2.863768 -0.686961,-4.333729 0,0 -5.792483,3.011532 -5.792483,3.011532 z" />
    <path
       style="fill:#000000;fill-opacity:1;stroke:none;stroke-width:3.28599;stroke-miterlimit:4;stroke-dasharray:none;stroke-opacity:1"
       id="path1349"
       d="m 38.541613,30.724458 c 0.802648,-1.135143 1.707645,-2.248333 2.768216,-3.154972 0.66334,-0.567063 1.681454,-0.803707 2.09237,-1.573594 0.342004,-0.640768 -2.55583,1.341751 -1.859097,1.136536 1.251884,-0.368726 2.371143,-1.09103 3.556715,-1.636545 1.418954,-0.457354 2.812171,-1.003988 4.256859,-1.372061 8.517854,-2.170144 17.490205,-1.837221 26.19945,-1.659342 4.053452,0.115311 8.290172,0.492924 12.155446,-1.043477 0.649924,-0.258339 1.268012,-0.595712 1.869203,-0.953079 2.243825,-1.333794 4.440695,-2.745037 6.661039,-4.117555 0.367107,-0.333682 0.736234,-0.665154 1.101314,-1.001045 2.393735,-2.202334 0.001,-0.161208 -4.695783,2.472605 -0.177523,0.09954 -0.444866,0.05371 -0.572508,0.212235 -0.291242,0.361704 -0.393562,0.841555 -0.607762,1.253586 -0.314186,0.604372 -0.651315,1.196538 -0.976974,1.794809 -3.110879,5.423647 -7.466561,9.93506 -11.730186,14.447744 -2.80695,2.918443 -5.231623,6.171865 -7.054342,9.788254 -0.02556,0.313285 -0.623683,0.97138 -0.454193,1.363953 0.07009,0.162341 0.198812,0.292471 0.29822,0.438705 0,0 5.388813,-3.813656 5.388813,-3.813656 v 0 c 0.407205,0.922724 0.139256,0.02146 0.527547,-0.606128 1.60415,-3.525854 3.992126,-6.591821 6.635633,-9.4049 4.277882,-4.628411 8.614601,-9.254269 11.900897,-14.671491 0.02474,-0.04151 1.745705,-2.866104 1.864165,-3.262085 0.134047,-0.448122 0.539557,-1.537065 0.0923,-1.400183 -3.834041,1.173393 -5.044559,2.510033 -7.399876,4.645451 1.240415,-0.642419 2.449377,-1.3496 3.721244,-1.927257 0.652244,-0.296235 -1.206644,0.781624 -1.857544,1.080802 -3.934934,1.808639 -8.357674,1.593977 -12.57356,1.591545 -5.262633,-0.02117 -10.5347,-0.09477 -15.792366,0.19748 -3.740549,0.207923 -6.78339,0.439296 -10.422373,1.265309 -1.416717,0.32158 -2.787862,0.818433 -4.181794,1.227651 -6.244598,2.730571 -12.665448,5.775846 -16.922374,11.271198 0,0 6.011304,-2.590493 6.011304,-2.590493 z" />
    <path
       style="fill:#000000;fill-opacity:1;stroke:none;stroke-width:3.28599;stroke-miterlimit:4;stroke-dasharray:none;stroke-opacity:1"
       id="path1431"
       d="m 6.2243816,19.171873 c 1.5749109,-0.690669 3.076313,-1.534546 4.5849004,-2.356731 4.031821,-2.309236 8.344138,-4.229915 11.995468,-7.1186807 0.767588,-0.6428387 1.427157,-1.4113181 2.128054,-2.1271268 0.824611,-0.7663044 1.503098,-1.6668831 2.290215,-2.4665125 0,0 -9.110188,3.8136799 -9.110188,3.8136799 v 0 c -0.739462,0.8471904 -1.519685,1.6539071 -2.316363,2.4473261 -0.700972,0.712753 -1.39698,1.438341 -2.226662,2.004452 -0.217929,0.153643 -2.554043,1.570064 -1.286105,0.843661 2.596078,-1.487295 5.183568,-2.989538 7.777555,-4.4804777 0.257588,-0.148053 -0.511057,0.3031827 -0.768321,0.4517997 -0.2937,0.169661 -0.589684,0.335341 -0.884527,0.50301 -1.438412,0.802359 -2.883959,1.601414 -4.373656,2.304261 0,0 -7.8103704,6.181339 -7.8103704,6.181339 z" />
  </g>
</svg>
